<svg version="1" xmlns="http://www.w3.org/2000/svg" width="1229.333" height="1229.333" viewBox="0 0 922.000000 922.000000"><path d="M533.2 65.6c-8.9 2.3-13.7 5.6-16.8 11.5-1.6 3.1-2.6 10.6-1.6 12.3.3.5.6 3 .7 5.5.2 2.5.4 6.2.5 8.1.3 5.6.2 5.8-3.2 5.4-14.3-1.8-64.8-2.4-88.3-1.1-18 1-22.5 1.4-39 3.3-2.7.3-6.6.7-8.5.9-3.5.4-9.4 1.2-14 2-1.4.3-4.3.7-6.5 1-3.6.5-7.4 1.2-17 3-1.6.3-3.9.8-5 1-2.3.4-16 3.2-19 3.9-12.7 2.8-36.2 9.4-53.5 14.9-3.6 1.1-6.5 1.9-6.5 1.7 0-.1-1.8.5-4 1.5-2.2.9-6.5 2.5-9.5 3.5-35.5 12-83 34.7-121.5 58.2-5.5 3.4-10.1 6.5-10.3 7-.2.4-.8.8-1.4.8-.8 0-16.5 10.2-20.3 13.3-.5.4-5.5 4-11 7.9-5.5 4-10.2 7.5-10.5 7.8-.3.3-2.3 1.8-4.5 3.5-2.2 1.6-4.2 3.2-4.5 3.5-.3.3-2.3 1.9-4.5 3.5-2.2 1.7-4.2 3.3-4.5 3.6-.3.3-3.4 3-7 6-3.6 2.9-8.3 6.9-10.4 8.9-2.2 1.9-5.1 4.5-6.5 5.8-1.4 1.3-7.7 7.1-13.9 13L-.2 297.4l32 31.5c17.7 17.4 33.6 33.1 35.5 34.9l3.4 3.3 5-4.8c15.6-14.8 20.6-19.3 30.8-27.8 3.3-2.8 6.2-5.2 6.5-5.5.3-.3 2.5-2.1 5-4s5.1-4 5.8-4.7c.7-.7 1.7-1.3 2.1-1.3.4 0 2.7-1.8 5.1-4 2.5-2.2 5-4 5.7-4 .6 0 1.3-.4 1.5-.8 1-2.6 41-27.9 60.3-38.3 12.6-6.8 37.9-19.2 39.5-19.4.3 0 1.1-.4 1.8-.8.6-.5 1.2-.5 1.2 0 0 .4.4.3.8-.3.8-1.2 12.3-6 13.5-5.6.4.1.7-.2.7-.8 0-.5 1.1-1 2.3-1 1.3 0 2.7-.3 3.1-.8.4-.4 1.1-.7 1.4-.7.4-.1 2.2-.9 3.9-1.8 1.8-1 3.5-1.7 3.8-1.7.3 0 .6 0 .8-.1.1 0 .9-.2 1.7-.4.8-.2 4.9-1.6 9-3 4.1-1.5 8-2.8 8.5-2.9 1.2-.2 8.4-2.5 10.5-3.3.8-.3 2-.7 2.5-.8.6-.1 5.5-1.5 11-3 11.5-3.1 9.9-2.7 23.5-5.9 9.2-2.1 14.3-3.1 25.3-5.1 1.5-.3 3.9-.7 5.5-1 6.7-1.3 30.2-4.4 36.7-4.9 1.1-.1 2.6-.5 3.3-.9.7-.5 1.2-.3 1.2.3s.4.9.9.6c.9-.6 10.8-1.4 24.1-2.1 6.1-.3 30.1-.5 46.7-.3 3 0 3.1.2 2.2 2.7-.6 1.4-1 2.7-1 2.9.1.1-.6 1.8-1.4 3.8-.8 2-1.5 4-1.5 4.5s-.5 1.7-1 2.7c-.6.9-4.2 10-8.1 20.2-6.4 17.1-15.4 40.4-20.1 52.5-1.1 2.7-2.4 6.2-3 7.7-.5 1.6-1.7 2.8-2.6 2.9-1 .1-3.9.2-6.7.4-14.5.8-25.2 1.8-38.5 3.6-4.1.6-9.1 1.3-11 1.5-1.9.3-6.9 1.1-11 1.9-4.1.8-8.6 1.7-10 1.9-1.4.3-3.5.7-4.7 1-1.3.4-3.3.8-4.5 1.1-1.3.2-3.6.8-5.3 1.2-1.6.4-3.2.7-3.5.8-.3 0-1.1.4-1.7.8-.7.5-1.3.6-1.3.3 0-.2-1.5 0-3.2.5-3.5 1.1-5.7 1.7-8.7 2.3-1.1.3-2.9 1-4 1.6-1.2.6-2.1.8-2.1.5 0-.2-2.1.4-4.7 1.4-2.7 1-5.1 1.9-5.5 2-.5 0-1 .2-1.3.2-.3.1-.8.2-1.2.3-.5.1-2.1.6-3.8 1.3-1.6.6-6.4 2.4-10.5 3.9-15.8 5.7-55.7 23.9-58 26.4-.3.3-2.3 1.4-4.5 2.5s-4.4 2.3-5 2.8c-.5.4-5.3 3.3-10.5 6.4-5.2 3.1-10.1 6.2-10.8 6.9-.6.7-2.1 1.6-3.2 1.9-1.1.3-2 1.1-2 1.6s-.6.9-1.4.9c-.8 0-1.6.3-1.8.7-.2.5-3 2.6-6.2 4.8-3.3 2.2-6.4 4.4-7 5-.6.6-2.7 2.2-4.6 3.5-1.9 1.3-3.7 2.7-4 3-.3.3-4.3 3.7-9 7.5-10 8.1-12.3 10.1-24.5 21.7l-9.2 8.8 35.3 35.2c19.4 19.4 35.7 35.4 36.2 35.6.5.1 4.3-3 8.4-7 8.7-8.4 13.6-12.8 14.2-12.8.3 0 1.8-1.2 3.3-2.6 5-4.6 19.1-15.4 20.2-15.4.6 0 1.1-.4 1.1-.8 0-.7 12.7-9.3 20.1-13.7 8.1-4.8 17.5-9.9 17.8-9.6.2.1.7-.1 1-.6.8-1.3 21.8-11.3 23.6-11.3.7 0 1.5-.5 1.7-1 .2-.6 1.2-1.2 2.3-1.4 1.1-.3 3.8-1.2 6-2.1 6.5-2.8 29.5-10.5 35.5-12 21.7-5.2 26.6-6.3 32-7.1 1.9-.2 4.3-.7 5.3-1 2.1-.6 2.1-.3.3 4.1-.8 1.9-1.2 3.5-.8 3.5.4 0 .2.4-.3.8-.6.4-1.6 2.3-2.2 4.2-2.1 6.4-3.8 10.5-4.8 11.2-.5.4-.7.8-.3.8.3 0-1.4 5.1-3.9 11.2-2.4 6.2-4.6 12-4.8 12.8-.2.8-.4 1.6-.5 1.7-.2.2-.3.6-.4 1-.1.5-1 2.6-2 4.8-1 2.2-1.9 4.4-2 5-.1.5-1.7 4.8-3.5 9.5-1.9 4.7-6 15.5-9.3 24-7.1 18.7-8.1 21-9 21-.9 0-16.6 7.8-22.5 11.1-5.5 3.1-18.5 11.1-19.8 12.1-.5.4-5.5 4.3-11 8.5s-10.5 8.2-11.1 8.7c-.6.6-3.4 3.3-6.3 5.9-2.8 2.7-5.2 5.2-5.4 5.7-.1.5 9 10.1 20.1 21.4 18.2 18.2 20.3 20.7 19.6 22.8-.4 1.2-.9 2.7-1 3.3-.1.5-3.4 9.3-7.4 19.5-7.2 18.5-8.1 21-16 41.5-2.3 6-4.8 12.4-5.6 14.2-.8 1.7-1.4 3.4-1.4 3.8 0 .4-.6 2.1-1.4 3.8-.8 1.8-2.6 6.6-4.1 10.7-1.5 4.1-3.3 8.8-4 10.5-1.6 3.6-3.4 9.5-4 12.7-.3 1.3-.8 3.4-1.1 4.8-1.8 7.8-1 33 1.3 39 .3.8.8 2.3 1 3.4.6 3.2 5.5 14.9 8.6 20.6 2.6 4.7 4.5 7.5 10.2 14.8 2.8 3.5 11.5 11.7 15.5 14.5 5.8 4.1 15 9.7 16 9.7.4 0 2.1.7 3.8 1.5 1.7.9 3.9 1.8 4.9 2 1 .2 3.8 1 6.3 1.9 2.5.8 6.5 1.8 9 2.2 6.2 1 25.4 1.1 31.8.1 10.2-1.4 26-7.4 34-12.8 2.4-1.6 4.7-2.9 5.3-2.9.5 0 .9-.3.9-.8 0-.4 1.1-1.5 2.5-2.5 2.2-1.6 2.8-1.6 6.7-.3 27.5 9.3 56.3 2.7 75.8-17.5 10-10.3 14.3-16.9 17.4-26.9 1-3 2-6.2 2.3-7 1.5-4.1 2.2-23.7 1-29-.3-1.4-.8-3.6-1.1-4.9-2.7-12.4-11.8-27.7-21.8-36.6-6.5-5.8-8.7-7.5-9.8-7.5-.6 0-1-.5-1-1 0-.6-.7-1-1.5-1s-1.5-.6-1.5-1.3c0-1.3 5.3-15.7 7.1-19.2.5-1.2 1.1-2.7 1.3-3.5.1-.8.8-2.6 1.6-4 .7-1.4 1.2-2.5 1.1-2.5-.3 0-.5.7 9.6-26 4.2-11 7.9-20.5 8.3-21 .4-.6 1.1-2.5 1.5-4.3.6-2.9 1-3.3 3.1-2.8 2.5.7 15.7 8.6 16.2 9.8.2.5.8.8 1.4.8.5 0 1.5.6 2.2 1.3.7.6 2.8 2.3 4.6 3.7 1.9 1.4 5.9 4.9 9 7.8l5.5 5.3 35.2-35.7c19.5-19.8 34.9-36.2 34.6-36.8-.4-.6-2.2-2.5-4.2-4.1-1.9-1.7-4.4-3.9-5.5-5-1.7-1.6-10.3-8.7-15.1-12.3-6.6-4.9-11.5-8.2-12.4-8.2-.6 0-1.4-.7-1.7-1.5-.4-.8-1.1-1.5-1.7-1.5-.5 0-2.5-1.1-4.4-2.6-1.8-1.4-3.3-2.2-3.3-1.8 0 .4-.8 0-1.7-.9-1-.8-6.8-4-13-7.1-11-5.5-11.1-5.6-10.3-8.3.7-2.6 6.8-18.5 9.3-24.3.6-1.4 1.1-2.7 1.2-3 .5-1.9 1.9-6 3-8.5 1.1-2.7 2.5-6.1 3-7.5.1-.3.5-1.4 1-2.5.4-1.1 3.2-8.5 6.2-16.5s6-15.9 6.7-17.5c.7-1.7 1.9-4.4 2.5-6.2 1.1-2.8 1.6-3 3.9-2.3 7.1 2 41.4 20.9 52.3 28.7 2.6 1.8 5.1 3.3 5.7 3.3.6 0 1.2.3 1.4.7.2.5 4.6 4 9.8 8 5.2 3.9 10.4 8 11.5 9 1.1 1 4.5 3.9 7.5 6.4 3 2.6 8.4 7.5 11.9 10.8 3.5 3.4 6.8 6 7.3 5.9.4-.2 16.7-16.2 36.1-35.6l35.3-35.2-9.2-9c-5.1-5-9.5-9-9.7-9-.3 0-2.3-1.7-4.5-3.8-6.1-5.8-9.1-8.2-10.2-8.2-.6 0-1-.4-1-.9 0-1-26.6-20.9-36.5-27.3-22.7-14.7-46.5-27.6-66.7-36.3-3.8-1.6-6.8-3.3-6.8-3.8 0-.4 2-5.8 4.4-12 6.1-15.8 12-31.1 12.2-31.7 0-.3.4-1.4.9-2.5 4.1-10 5.2-13.4 4.7-13.9-.3-.3 0-.6.6-.6.7 0 1.2-.6 1.2-1.2 0-1 10.8-29.6 11.5-30.6.6-.8 18.1 7 37.9 16.9 15.5 7.8 33.9 18.1 36.9 20.7.9.8 1.7 1.2 1.7.8 0-.4.7 0 1.6.8.8.9 2.2 1.6 3 1.6.8 0 1.4.3 1.4.7 0 .5 2.9 2.6 6.5 4.8 3.6 2.2 6.5 4.3 6.5 4.7 0 .4.6.8 1.3.8.7 0 2.2.8 3.3 1.8 1 1 3.4 2.7 5.2 3.7 1.7 1.1 3.2 2.3 3.2 2.7 0 .4.5.8 1.1.8.6 0 2.4 1 3.9 2.2 1.5 1.3 3.7 3 5 3.8 1.2.8 2.8 2 3.4 2.5.6.6 3.6 2.9 6.6 5.3 3 2.3 6 4.5 6.5 5 1.2.9 13.4 11.3 18.4 15.7 5.5 4.8 13.9 12.6 19.8 18.4l5.5 5.3 5.6-5.3c3-3 8.7-8.6 12.7-12.4 3.9-3.9 17.6-17.1 30.3-29.5l23.2-22.5-8.8-8.5c-8.2-7.9-15.6-14.6-28.7-26-8.3-7.3-10.8-9.3-15-12.4-2.2-1.7-4.2-3.3-4.5-3.6-.3-.4-6.1-4.9-13-10.1-26.2-19.6-64.4-43.9-84.2-53.5-3.2-1.6-5.8-3.2-5.8-3.6 0-.4-.4-.8-1-.8-.5 0-8.2-3.6-17.2-8-8.9-4.4-16.7-8-17.3-8-2.2 0-3.4-2.2-2.4-4.1 4.3-8-1.1-20.7-13.9-32.4-6.5-6-22.2-17.5-23.9-17.5-.7 0-1.3-.3-1.3-.8 0-.4-2.1-1.8-4.7-3.1-2.7-1.4-5.6-3.1-6.5-3.9-1-.9-1.8-1.2-1.8-.7 0 .4-.6.3-1.3-.3-1.7-1.4-17.8-9.6-19.4-9.8-.7-.1-2.7-1-4.5-1.9-4.1-2.1-13.9-5.8-23.8-9.1-4.1-1.4-8.4-3-9.5-3.4-1.1-.5-4-1.5-6.5-2.1-2.5-.7-4.9-1.4-5.5-1.5-3.3-1-10.3-2.7-12-2.9-1.1-.2-2.1-.4-2.2-.5-.2-.2-.6-.3-1-.4-2.4-.6-8.3-1.6-11.7-2.2-2.1-.3-4.8-.8-6-1.1-5.5-1.2-30.3-1.1-35.4.3zm31.3 15.8c1.7.2 5 .7 7.5 1.1 2.5.3 5.8 1 7.4 1.6 1.6.5 4 .9 5.2.9 1.3 0 2.4.4 2.4.9s-1.6.5-3.8 0c-2.1-.4-6.9-1.1-10.7-1.4-3.9-.4-7.2-.9-7.4-1.1-.2-.2-1 .1-1.8.7-.7.6-1.3.8-1.3.3 0-1.3-29-1.2-29.1.1-.1.5-.2 3.6-.3 6.7-.2 7-1 8.2-1.4 2-.1-2.6-.4-5.6-.6-6.7-.4-2.7 1.3-4.2 6.5-5.2 4.3-.9 21.4-.9 27.4.1zm29.7 6c2.4.8 5.4 1.7 6.8 1.9 1.4.3 4.5 1.2 7 2.1 2.5.9 5.2 1.9 6 2.1 2 .5 11.8 4 15.5 5.6 1.7.7 3.2 1.3 3.5 1.4.3 0 2.7 1.1 5.4 2.3 2.7 1.2 5 2.2 5.2 2.2.7 0 21.9 10.4 22.4 11 .3.3 1.6 1.1 3 1.8 9.9 4.9 32.6 21.1 29.7 21.2-.4 0-1.8-.9-3-2.1-1.2-1.2-5.6-4.3-9.7-7s-7.9-5.2-8.5-5.7c-3.5-2.8-42.8-21.9-46.5-22.6-.3-.1-1.8-.7-3.5-1.3-5.8-2.4-9-3.6-10-3.9-.5-.1-4.1-1.3-8-2.7-3.8-1.4-10.3-3.4-14.2-4.7-4-1.2-7.3-2.3-7.3-2.6 0-.7 1.8-.4 6.2 1zM569.5 97c.3.6-.1.7-.9.4-1.8-.7-2.1-1.4-.7-1.4.6 0 1.3.4 1.6 1zm-8.5.4c0 .2-.8 1-1.7 1.7-1.6 1.3-1.7 1.2-.4-.4 1.3-1.6 2.1-2.1 2.1-1.3zm4.3.3c-.7.2-1.9.2-2.5 0-.7-.3-.2-.5 1.2-.5s1.9.2 1.3.5zm63.7 13.9c0 .2-.9 0-2-.6s-2-1.3-2-1.6c0-.2.9 0 2 .6s2 1.3 2 1.6zm3.5 1.2c-.3.3-1.1 0-1.8-.7-.9-1-.8-1.1.6-.5 1 .3 1.5.9 1.2 1.2zm4.6 2c-.7.2-1.8-.1-2.3-.6-.8-.8-.4-.9 1.3-.5 1.3.4 1.8.8 1 1.1zm6.5 3.3c.3.6-.5.3-2-.6-1.4-1-2.6-1.9-2.6-2.2 0-.7 3.9 1.7 4.6 2.8zm3.4.9c0 .5-.2 1-.4 1-.3 0-.8-.5-1.1-1-.3-.6-.1-1 .4-1 .6 0 1.1.4 1.1 1zm5.5 3c.3.5.1 1-.4 1-.6 0-1.1-.5-1.1-1 0-.6.2-1 .4-1 .3 0 .8.4 1.1 1zm8.5 5.6c0 .7-5.8-2.5-6.5-3.6-.3-.5 1-.1 2.9 1.1 2 1.2 3.6 2.3 3.6 2.5zm5 3.5c1.7 1.3 1.8 1.7.5 1-3.3-1.7-5.1-3.1-4-3.1.6 0 2.1 1 3.5 2.1zm5.5 4.9c1 1.1 1.6 2 1.3 2-.3 0-1.3-.9-2.3-2-1-1.1-1.6-2-1.3-2 .3 0 1.3.9 2.3 2zm32.2 7.7c5.5 7.4 6.3 10.3 2.8 10.3-.8 0-1.4-.9-1.3-2.3.2-4.3-.2-5.4-3.2-8.6-1.7-1.7-2.6-3.1-2.1-3.1s2.2 1.7 3.8 3.7zM502.9 414.4c-.2.3-1.8.7-3.4 1-1.7.2-3 .5-3 .6 0 .2-1.5.5-6 1.3-16.7 3-33.2 10.9-49 23.5-6.9 5.5-7.3 5.7-2.9 1.5 11.4-10.8 21.8-17.4 35-22.2 7.6-2.8 10-3.4 18.9-4.7 2.2-.3 4.2-.8 4.4-1 .6-.5 6.5-.5 6 0zm-72.9 37c0 .2-.8 1-1.7 1.7-1.6 1.3-1.7 1.2-.4-.4 1.3-1.6 2.1-2.1 2.1-1.3zm-5.2 6.1c-1.5 1.3-3.5 3.8-4.4 5.5-2.1 3.5-4 4.1-2.3.7 1.4-2.7 7-8.6 8.4-8.6.5-.1-.2 1-1.7 2.4zm-8.7 13.8c-1 .9-1.1.8-.5-.6.3-1 .9-1.5 1.2-1.2.3.3 0 1.1-.7 1.8zm36.4-1.3c.3.6-.1.7-.9.4-1.8-.7-2.1-1.4-.7-1.4.6 0 1.3.4 1.6 1zM440 695.4c0 .2-.8 1-1.7 1.7-1.6 1.3-1.7 1.2-.4-.4 1.3-1.6 2.1-2.1 2.1-1.3zm-139.4 37.4c-1.7 1.6-1.8 1.6-.5-.5.7-1.2 1.5-2 1.8-1.7.3.2-.3 1.2-1.3 2.2zm-2.2 7.7c-.9 2.8-1.7 5.9-1.9 7-.1 1.1-.3 2-.5 2-.1 0-.3 1-.4 2.2-.3 2.9-1.6 4.3-1.6 1.7 0-3.6 4.7-19 5.6-18.2.2.2-.4 2.6-1.2 5.3zm9.9 18.2c-.3 2.1-.7 4-1 4.3-.5.6-.1-6.1.5-7.3.8-1.6 1-.5.5 3zm-14-1.2c-.3.9-.8 1.4-1 1.1-.3-.3-.2-.9.2-1.5.9-1.6 1.5-1.3.8.4zm14.1 12.9c.3 3.3.3 5.7 0 5.3-.3-.3-.8-3.2-1.1-6.4-.3-3.2-.3-5.6 0-5.3.2.3.7 3.2 1.1 6.4zm1.4 9.1c-.3.3-.9-.2-1.2-1.2-.6-1.4-.5-1.5.5-.6.7.7 1 1.5.7 1.8zm1.2 2.5c0 .5-.2 1-.4 1-.3 0-.8-.5-1.1-1-.3-.6-.1-1 .4-1 .6 0 1.1.4 1.1 1zm-13 4.7c1.6 5.6 6.2 13.9 11.7 21.4 5.8 7.8 19.5 20.8 21.9 20.9.6 0 1.7.7 2.4 1.5 1.7 2.1 15.4 8.4 19.5 9 .6.1 1.6.3 2.3.3.6.1 1.2.7 1.2 1.3 0 .5-.5.7-1.2.3-.7-.4-2.2-.9-3.4-1-5.2-.6-25.1-10.1-26.2-12.7-.2-.4-.8-.7-1.4-.7-.5 0-3.2-2.1-6-4.8-7.5-7-7.8-7.3-7.8-8 0-.4-1.1-2-2.5-3.6-2.3-2.7-10.5-18.3-11.4-21.6-.2-.8-.7-2.7-1.1-4.3-.5-1.5-.5-2.7-.1-2.7.3 0 1.3 2.1 2.1 4.7zm26.1 19c1.3 1.6 1.2 1.7-.3.4-1.7-1.3-2.2-2.1-1.4-2.1.2 0 1 .8 1.7 1.7zm4.3 4.9c.3.8.2 1.2-.4.9-.6-.3-1-1-1-1.6 0-1.4.7-1.1 1.4.7zm6.6 5.6c0 1.3-.5.9-3.1-1.9l-2.4-2.6 2.7 1.9c1.5 1 2.8 2.2 2.8 2.6zm13.6 7.6c-.5.4-12.6-5.6-12.6-6.3 0-.3 2.9 1 6.5 2.7 3.5 1.8 6.3 3.4 6.1 3.6zm6.9 2.3c.5.5-.5.4-2.3-.2-1.7-.6-3.2-1.3-3.2-1.6 0-.7 4.3.8 5.5 1.8zm35.5-1.7c0 .2-.7.7-1.6 1-.8.3-1.2.2-.9-.4.6-1 2.5-1.4 2.5-.6zm-29.6 2.5c.3.4-.6.6-1.9.3-1.4-.2-2.5-.6-2.5-.8 0-.8 3.9-.4 4.4.5zM397 837c0 .5-.5 1-1.1 1-.5 0-.7-.5-.4-1 .3-.6.8-1 1.1-1 .2 0 .4.4.4 1zm-4.5 2c-2.7 1.2-3.5 1.2-3.5 0 0-.6 1.2-1 2.8-.9 2.4 0 2.5.1.7.9zm-5.1 1c-2.3 2.1-26.4 3.4-28.4 1.4-.5-.5 3.2-.8 8.8-.7 5.3.1 11.3-.2 13.2-.6 5.2-1.1 7.4-1.1 6.4-.1z"/></svg>