<svg xmlns="http://www.w3.org/2000/svg" width="460.612" height="397.038" viewBox="0 0 121.87 105.05"><g transform="translate(-63.731 -145.608)"><path d="M124.666 229.283c-5.28 0-9.75 4.333-9.75 9.75 0 5.145 4.47 9.478 9.75 9.478 5.281 0 9.614-4.469 9.614-9.479 0-5.416-4.333-9.75-9.614-9.75zm-13.947-6.094c7.583-7.99 20.447-7.99 28.165 0l9.344-9.479c-13.135-12.864-34.124-12.864-46.988 0zM73.074 185.68c28.437-28.436 74.612-28.436 103.048 0l9.48-9.208c-33.854-33.717-88.154-33.717-121.871 0zm18.687 18.958c18.01-18.28 47.53-18.28 65.675 0l9.478-9.48c-23.426-23.425-61.34-23.425-84.632 0z"/><g transform="translate(72.32 11.248) scale(1.15586)" fill-rule="evenodd"><path d="M35.024 207.127c-1.323 0-2.62-.238-3.863-.715-5.212-1.984-7.964-7.646-6.535-12.885l-.053-.026.344-.9 26.485-68.792c.397-1.005.212-3.44.026-4.789a2.054 2.054 0 0 1 .027-.9l.026-.052c.027-.053.027-.106.053-.159.424-1.111 1.72-1.667 3.837-1.667 2.54 0 6.059.794 9.657 2.17 3.016 1.164 5.768 2.62 7.7 4.074 2.275 1.72 3.174 3.255 2.672 4.578a587 587 0 0 0-.08.159l-.026.052a1.908 1.908 0 0 1-.556.662c-1.164 1.032-2.884 2.778-3.175 3.572l-26.802 69.744-.053-.027c-1.879 3.599-5.556 5.9-9.684 5.9zm-8.281-14.076l-.08.185c-1.693 4.55.609 9.684 5.16 11.43a8.76 8.76 0 0 0 3.175.582c2.33 0 4.285-1.147 6.103-2.402 1.055-.728 1.684-1.973 2.178-3.233l.106-.239 26.353-68.5c.555-1.482 3.175-3.837 3.704-4.313l.053-.053c.053-.026.079-.053.079-.08l.026-.026c.027-.185-.211-1.005-2.063-2.434-1.773-1.35-4.34-2.699-7.223-3.81-3.334-1.296-6.72-2.064-8.996-2.064-1.508 0-2.011.318-2.09.477v.158c.052.397.555 3.916-.133 5.742z"/><path d="M60.636 149.474s-3.651 4.207-6.985 5.715c-3.334 1.508-5.795 1.111-8.784 2.857-2.99 1.747-4.498 4.18-4.498 4.18l-12.171 31.672c-1.323 3.571.635 7.752 4.26 9.154 3.625 1.402 7.726-.45 9.128-3.995zm-12.25 18.283c.582-.265 1.27 0 1.508.582.264.582 0 1.27-.582 1.508-.582.264-1.27 0-1.508-.582-.291-.582 0-1.27.582-1.508zm-4.895-5.213c.397-.158.847 0 1.005.397.159.397 0 .847-.397 1.006-.396.158-.846 0-1.005-.397-.159-.397.026-.847.397-1.006zm-5.371 17.913c-.582.264-1.27 0-1.508-.582-.265-.582 0-1.27.582-1.509.582-.264 1.27 0 1.508.583.291.582.026 1.243-.582 1.508zm1.085-4.154a2.182 2.182 0 0 1 1.084-2.858 2.182 2.182 0 0 1 2.858 1.085 2.182 2.182 0 0 1-1.085 2.858c-1.111.476-2.381 0-2.857-1.085zm2.751 10.98c.397-.159.847 0 1.006.397.158.397 0 .846-.397 1.005-.397.159-.847 0-1.006-.397-.158-.37 0-.82.397-1.005z" fill="#c00"/><ellipse transform="rotate(-68.96)" cx="-92.337" cy="103.137" rx="1.931" ry="7.355"/></g><path d="M110.519 248.096c-3.254-.773-6.506-4.048-7.54-7.336-1.077-3.423-1.84-2.003 15.442-46.202l15.794-40.39-.124-2.892.01-3.092 3.206.032c2.882.03 3.583.16 6.95 1.29 5.727 1.921 11.23 4.959 12.54 6.92.462.693.41.788-1.578 2.884l-1.822 2.267-15.626 40.82c-15.48 40.44-16.03 40.613-17.332 42.669-.755 1-2.442 1.82-3.346 2.256-1.834.882-4.696 1.22-6.574.774zm5.588-2.253c1.636-.912 2.538-1.882 3.338-3.114.422-.651 22.273-58.38 23.075-58.756.083-.039-1.056 1.29-2.578 2.722-3.406 3.206-5.332 4.64-10.242 5.202-4.498.515-6.608 2.258-8.911 4.586l-1.758 1.775-6.703 18.9c-3.648 10.287-7.7 18.838-7.88 19.688-.76 3.59 1.845 7.967 5.52 9.277 1.884.672 4.358.56 6.14-.28zm36.992-88.747c.576-.356.131-1.383-1.032-2.379-3.316-2.839-11.823-5.6-14.31-4.647-.71.273-.298 1.358.507 2.097 3.452 3.168 12.63 6.292 14.835 4.93z" fill="#fff"/><path d="M122.387 200.572c-.226-.226-.303-.5-.238-.847.094-.501.648-.763 1.123-.53.832.407.568 1.563-.358 1.563-.257 0-.386-.046-.527-.186zM120.906 229.32c-.634-.169-.768-1.034-.228-1.471.21-.17.731-.176.967-.01.24.167.404.58.347.867-.09.447-.61.741-1.086.615z" fill="#fff"/><ellipse ry="2.525" rx="2.688" cy="214.006" cx="119.859" fill="#fff"/><ellipse ry="1.332" rx="1.418" cy="218.617" cx="115.798" fill="#fff"/><ellipse ry="1.43" rx="1.522" cy="206.355" cx="128.846" fill="#fff"/></g></svg>